<svg width="15" height="20" viewBox="0 0 15 20" fill="none" xmlns="http://www.w3.org/2000/svg">
<path d="M4.5 16.0581C3.675 16.0581 3.0075 16.9078 3.0075 17.9463C3.0075 18.9848 3.675 19.8345 4.5 19.8345C5.325 19.8345 6 18.9848 6 17.9463C6 16.9078 5.325 16.0581 4.5 16.0581ZM0 0.952469V2.84067H1.5L4.2 10.0064L3.1875 12.3195C3.0675 12.5838 3 12.8954 3 13.2258C3 14.2643 3.675 15.114 4.5 15.114H13.5V13.2258H4.815C4.71 13.2258 4.6275 13.1219 4.6275 12.9898L4.65 12.8765L5.325 11.3376H10.9125C11.475 11.3376 11.97 10.9505 12.225 10.3652L14.91 4.23794C14.97 4.10577 15 3.94527 15 3.78478C15 3.26552 14.6625 2.84067 14.25 2.84067H3.1575L2.4525 0.952469H0ZM12 16.0581C11.175 16.0581 10.5075 16.9078 10.5075 17.9463C10.5075 18.9848 11.175 19.8345 12 19.8345C12.825 19.8345 13.5 18.9848 13.5 17.9463C13.5 16.9078 12.825 16.0581 12 16.0581Z" fill="#213586"/>
</svg>
